<?xml version="1.0" standalone="no"?>
<!DOCTYPE svg PUBLIC "-//W3C//DTD SVG 20010904//EN"
 "http://www.w3.org/TR/2001/REC-SVG-20010904/DTD/svg10.dtd">
<svg version="1.0" xmlns="http://www.w3.org/2000/svg"
 width="330.000000pt" height="84.000000pt" viewBox="0 0 330.000000 84.000000"
 preserveAspectRatio="xMidYMid meet">

<g transform="translate(0.000000,84.000000) scale(0.100000,-0.100000)"
fill="#fff" stroke="none">
<path d="M1700 790 c-6 -11 -7 -26 -3 -33 4 -6 8 -14 9 -17 0 -3 4 -13 9 -23
4 -11 3 -23 -4 -30 -8 -8 -11 -7 -11 5 0 23 -26 43 -36 27 -4 -7 0 -17 10 -24
14 -11 15 -13 1 -18 -8 -4 -14 -1 -12 5 1 6 -4 13 -12 16 -8 3 -11 0 -7 -7 4
-6 3 -11 -3 -11 -5 0 -11 6 -14 13 -3 9 -7 9 -17 0 -13 -12 -4 -37 10 -28 9 6
40 -33 40 -50 0 -5 -5 -3 -11 5 -9 13 -10 13 -6 0 13 -51 151 -51 164 0 4 13
3 13 -6 0 -6 -8 -11 -10 -11 -5 0 17 31 56 40 50 14 -9 23 16 10 28 -10 9 -14
9 -17 0 -3 -7 -9 -13 -14 -13 -6 0 -7 5 -4 10 3 6 1 10 -4 10 -6 0 -11 7 -11
16 0 22 -23 12 -37 -16 -10 -21 -13 -22 -19 -7 -3 9 -1 24 6 32 7 8 9 15 5 15
-4 0 -2 6 4 14 9 11 10 20 1 35 -14 27 -36 27 -50 1z m15 -20 c3 -5 1 -10 -4
-10 -6 0 -11 5 -11 10 0 6 2 10 4 10 3 0 8 -4 11 -10z m22 -106 c-3 -3 -12 -4
-19 -1 -8 3 -5 6 6 6 11 1 17 -2 13 -5z m3 -34 c0 -5 -7 -10 -15 -10 -8 0 -15
5 -15 10 0 6 7 10 15 10 8 0 15 -4 15 -10z"/>
<path d="M1501 637 c-19 -11 -31 -16 -27 -9 12 20 -21 14 -36 -6 -7 -10 -19
-22 -27 -27 -11 -6 -13 -4 -7 10 6 15 4 16 -9 5 -22 -18 -47 -68 -40 -80 3 -5
-7 -10 -22 -12 -22 -2 -29 -10 -34 -35 -4 -18 -3 -33 0 -33 13 0 31 24 31 43
0 10 5 15 10 12 6 -3 10 -15 10 -26 0 -12 5 -19 13 -16 6 2 11 17 10 33 -1 16
1 21 4 12 2 -10 9 -18 14 -18 6 0 7 -4 4 -10 -3 -5 -2 -10 3 -10 6 0 12 -7 16
-15 5 -13 2 -14 -16 -4 -20 11 -21 9 -15 -19 7 -33 -13 -59 -35 -46 -10 6 -9
3 1 -9 16 -20 2 -23 -19 -4 -8 6 -5 0 8 -14 23 -27 29 -54 12 -64 -5 -3 -10
-14 -10 -24 0 -10 -6 -24 -14 -30 -18 -15 -29 -73 -16 -81 13 -8 80 0 80 10 0
13 -44 20 -51 9 -5 -8 -8 -8 -13 -1 -8 14 3 62 15 62 5 0 9 9 9 19 0 11 5 23
11 27 7 4 9 21 6 41 -5 26 -1 39 14 54 23 23 38 24 64 5 19 -14 19 -14 -1 -33
-34 -31 -80 -88 -59 -73 11 8 25 22 32 30 10 13 14 12 28 -7 16 -22 43 -33 30
-13 -12 19 10 9 33 -14 13 -15 18 -27 12 -31 -14 -9 -110 -3 -110 6 0 5 -10 5
-22 0 -14 -5 -22 -15 -20 -26 2 -10 -1 -14 -7 -10 -6 3 -11 2 -11 -4 0 -13 37
-24 52 -15 8 5 9 2 5 -9 -4 -11 -1 -17 9 -17 8 0 12 4 9 10 -3 6 1 7 10 4 9
-4 33 5 55 20 47 31 51 32 43 9 -6 -17 -5 -17 14 0 11 9 28 17 39 17 29 0 -36
-39 -73 -43 -16 -2 -38 -9 -49 -15 -16 -10 -13 -11 16 -6 19 3 45 7 58 10 16
3 22 0 22 -14 0 -32 17 -39 83 -31 48 6 64 5 73 -6 8 -11 12 -11 20 0 7 11 23
12 71 6 66 -8 83 -1 83 31 0 14 6 17 23 14 12 -3 38 -7 57 -10 29 -5 32 -4 16
6 -11 6 -33 13 -49 15 -37 4 -102 43 -73 43 11 0 28 -8 39 -18 19 -16 20 -16
14 1 -8 23 -4 22 43 -9 22 -15 46 -24 55 -20 9 3 13 2 10 -4 -3 -6 1 -10 9
-10 10 0 13 6 9 17 -4 11 -3 14 5 9 15 -9 52 2 52 15 0 6 -5 7 -11 4 -6 -4 -9
0 -7 10 2 11 -6 21 -19 26 -13 5 -23 5 -23 0 0 -9 -96 -15 -110 -6 -6 4 -1 16
12 31 23 23 45 33 33 14 -13 -20 14 -9 30 12 14 20 18 21 28 8 7 -8 21 -22 32
-30 21 -15 -25 42 -59 73 -20 19 -20 19 -1 33 26 19 41 18 64 -5 15 -15 19
-28 14 -54 -3 -20 -1 -37 6 -41 6 -4 11 -16 11 -27 0 -10 4 -19 9 -19 12 0 23
-48 15 -62 -5 -7 -8 -7 -13 1 -7 11 -51 4 -51 -9 0 -10 67 -18 80 -10 13 8 2
66 -16 81 -8 6 -14 20 -14 30 0 10 -4 21 -10 24 -17 10 -11 37 12 64 13 14 16
20 8 14 -21 -19 -35 -16 -19 4 10 12 11 15 1 9 -22 -13 -42 13 -35 46 6 28 5
30 -15 19 -18 -10 -21 -9 -16 4 4 8 10 15 16 15 5 0 6 5 3 10 -3 6 -2 10 4 10
5 0 12 8 14 18 3 9 5 4 4 -12 -1 -17 4 -31 12 -34 10 -3 12 0 8 11 -3 9 1 21
9 27 11 10 14 9 14 -7 0 -19 17 -43 31 -43 3 0 4 15 0 33 -5 25 -12 33 -34 35
-15 2 -25 7 -22 12 7 12 -18 62 -40 80 -13 11 -15 10 -9 -5 6 -14 4 -16 -7
-10 -8 5 -20 17 -27 27 -15 20 -48 26 -36 6 4 -7 -9 -2 -30 10 -46 27 -58 23
-20 -7 18 -14 24 -26 20 -38 -6 -16 -6 -16 12 0 23 21 46 22 62 2 7 -9 19 -14
26 -11 7 3 16 1 19 -4 4 -6 2 -10 -3 -10 -6 0 -8 -9 -5 -20 3 -11 3 -26 -1
-35 -9 -24 -57 2 -52 29 2 12 1 16 -1 9 -2 -6 -15 -19 -28 -27 -21 -14 -24
-14 -19 -1 6 16 -23 52 -33 41 -4 -3 -2 -11 4 -17 13 -13 5 -49 -12 -49 -7 0
-18 7 -25 15 -7 8 -22 15 -34 15 -11 1 -45 9 -75 19 -46 16 -58 17 -85 6 -17
-7 -52 -16 -78 -20 -26 -4 -53 -13 -59 -21 -6 -8 -17 -14 -24 -14 -17 0 -25
36 -12 49 6 6 8 14 4 17 -10 11 -39 -25 -33 -41 5 -13 2 -13 -19 1 -13 8 -26
21 -28 27 -2 7 -3 3 -1 -9 5 -27 -43 -53 -52 -29 -4 9 -4 24 -1 35 3 11 1 20
-5 20 -5 0 -7 4 -3 10 3 5 12 7 19 4 7 -3 19 2 26 11 16 20 39 19 62 -2 17
-15 18 -15 12 0 -4 11 4 25 23 41 34 31 21 32 -26 3z m7 -149 c17 -14 15 -28
-4 -28 -8 0 -12 -4 -9 -10 11 -18 40 -10 60 18 15 21 15 24 2 13 -9 -7 -17 -9
-17 -3 0 5 6 15 14 21 17 14 26 -5 26 -55 0 -69 36 -120 136 -196 15 -11 109
65 126 102 15 35 28 39 28 10 0 -11 5 -20 10 -20 16 0 26 33 12 38 -7 2 -10 8
-7 13 4 5 -1 6 -9 3 -12 -5 -14 1 -10 33 11 79 14 86 29 73 8 -7 15 -17 15
-22 0 -6 -8 -4 -17 3 -13 11 -13 8 2 -13 20 -28 49 -36 60 -18 3 6 -1 10 -10
10 -24 0 -13 23 18 38 21 10 30 10 47 0 11 -7 20 -16 20 -21 0 -4 -12 0 -27
10 l-28 17 23 -23 24 -24 -21 -21 c-14 -14 -34 -21 -59 -21 -33 0 -37 -2 -25
-13 8 -8 11 -23 7 -38 -4 -17 0 -31 12 -45 22 -24 16 -29 -65 -55 -31 -9 -62
-21 -69 -27 -17 -13 -137 -13 -154 0 -7 6 -38 18 -69 27 -81 26 -87 31 -65 55
12 14 16 28 12 45 -4 15 -1 30 7 38 12 11 8 13 -25 13 -25 0 -45 7 -59 21
l-21 21 24 24 23 23 -27 -17 c-31 -19 -38 -12 -10 9 17 13 47 10 70 -8z m263
-9 c19 -19 19 -22 4 -45 -9 -15 -13 -34 -10 -51 6 -27 6 -27 -9 -9 -9 11 -16
23 -16 28 0 4 -7 8 -15 8 -9 0 -15 -9 -15 -24 0 -18 6 -26 23 -29 19 -3 20 -4
5 -11 -29 -13 -48 1 -49 36 -1 18 -3 25 -6 16 -2 -10 -9 -18 -14 -18 -10 0
-13 103 -2 113 15 16 83 7 104 -14z m-257 -128 c3 -5 -1 -14 -8 -20 -12 -10
-13 -8 -9 8 6 23 9 25 17 12z m439 -12 c4 -16 3 -18 -9 -8 -7 6 -11 15 -8 20
8 13 11 11 17 -12z m-499 -123 c-3 -8 -12 -12 -20 -9 -17 6 -9 23 11 23 8 0
12 -6 9 -14z m189 -17 c-35 -7 -39 -4 -24 15 10 12 16 13 32 3 19 -11 18 -12
-8 -18z m197 2 c0 -4 -14 -6 -30 -3 -28 4 -29 6 -13 17 17 13 43 4 43 -14z
m184 20 c3 -5 0 -11 -8 -14 -8 -3 -17 1 -20 9 -6 15 19 20 28 5z m-320 -10 c3
-5 0 -11 -7 -14 -8 -3 -14 1 -14 9 0 16 13 19 21 5z m63 -5 c0 -8 -6 -12 -14
-9 -7 3 -10 9 -7 14 8 14 21 11 21 -5z m-167 -6 c0 -5 -4 -10 -10 -10 -5 0
-10 5 -10 10 0 6 5 10 10 10 6 0 10 -4 10 -10z m270 0 c0 -5 -4 -10 -10 -10
-5 0 -10 5 -10 10 0 6 5 10 10 10 6 0 10 -4 10 -10z m-201 -38 c8 -15 4 -17
-35 -17 -24 0 -44 -4 -44 -8 0 -5 -5 -5 -11 -1 -17 10 10 24 49 24 20 0 31 4
27 10 -3 6 -4 10 -1 10 3 0 10 -8 15 -18z m69 -1 c-4 -19 -22 -18 -26 2 -2 7
4 14 13 14 9 0 15 -7 13 -16z m57 9 c-4 -6 7 -10 27 -10 39 0 66 -14 49 -24
-6 -4 -11 -4 -11 1 0 4 -20 8 -44 8 -39 0 -43 2 -35 17 5 10 12 18 15 18 3 0
2 -4 -1 -10z"/>
<path d="M1552 363 c5 -25 28 -28 28 -4 0 12 -6 21 -16 21 -9 0 -14 -7 -12
-17z"/>
<path d="M1681 453 c1 -17 3 -21 6 -10 5 21 23 23 23 2 0 -20 39 -19 47 1 7
20 -13 34 -49 34 -24 0 -28 -4 -27 -27z"/>
<path d="M1455 590 c-3 -5 1 -10 9 -10 9 0 16 5 16 10 0 6 -4 10 -9 10 -6 0
-13 -4 -16 -10z"/>
<path d="M1970 590 c0 -5 7 -10 16 -10 8 0 12 5 9 10 -3 6 -10 10 -16 10 -5 0
-9 -4 -9 -10z"/>
<path d="M2280 577 c-43 -22 -32 -32 34 -32 63 0 63 0 49 -22 -8 -12 -15 -38
-16 -57 -2 -29 -6 -36 -22 -36 -11 0 -27 -5 -35 -10 -11 -7 -8 -10 16 -10 20
0 34 -6 38 -16 9 -23 8 -24 -19 -24 -14 0 -25 -4 -25 -10 0 -5 9 -10 19 -10
17 0 31 -18 31 -40 0 -5 -17 -25 -37 -45 l-37 -35 37 15 c46 19 139 19 176 1
25 -14 29 -13 57 10 16 14 23 23 17 19 -7 -3 -33 1 -59 10 -30 10 -59 13 -83
9 l-36 -7 37 41 c45 50 52 75 44 153 -7 55 -5 61 20 84 31 29 27 31 -21 11
-40 -17 -43 -27 -47 -148 -3 -85 -4 -89 -36 -120 l-34 -33 21 40 c17 32 21 58
21 130 0 62 4 97 14 111 14 19 13 20 -14 16 -16 -2 -42 0 -58 6 -21 7 -36 7
-52 -1z"/>
<path d="M43 565 c-41 -17 -42 -23 -3 -17 47 7 59 -10 59 -84 l0 -64 -28 19
c-25 18 -30 19 -47 6 -16 -12 -17 -14 -3 -15 27 0 79 -55 79 -83 0 -20 -10
-30 -47 -48 -26 -13 -49 -30 -51 -38 -4 -11 1 -10 19 2 29 21 107 22 152 3 31
-12 35 -12 62 11 17 14 24 22 17 18 -7 -4 -24 -4 -37 -1 -25 6 -25 6 -22 133
1 83 6 128 13 130 7 2 26 -15 43 -38 l31 -43 -35 -24 c-19 -14 -35 -28 -35
-31 0 -3 13 -13 29 -23 21 -11 35 -33 52 -77 12 -34 25 -63 28 -65 3 -2 19 7
36 20 24 19 25 22 8 18 -18 -5 -23 2 -39 48 -9 29 -30 65 -45 79 l-29 27 34
23 34 23 -31 44 c-17 24 -35 46 -39 48 -4 3 -28 -9 -52 -25 -42 -29 -45 -30
-51 -12 -13 41 -56 56 -102 36z m137 -160 c0 -96 -3 -115 -15 -115 -12 0 -15
18 -15 103 0 90 8 127 27 127 2 0 3 -52 3 -115z"/>
<path d="M3016 555 c-16 -9 -34 -14 -40 -12 -8 3 -11 -41 -11 -138 l0 -143 26
-14 c23 -14 28 -13 47 2 21 17 21 18 2 23 -19 5 -20 14 -20 133 0 105 3 131
17 146 20 22 17 22 -21 3z"/>
<path d="M1176 544 c-10 -25 1 -29 14 -5 6 12 7 21 1 21 -5 0 -12 -7 -15 -16z"/>
<path d="M2867 549 c-9 -5 -20 -8 -25 -5 -4 2 -7 -60 -7 -137 0 -114 3 -144
15 -154 20 -17 45 -16 59 1 10 11 8 16 -8 21 -20 6 -21 14 -21 126 0 66 5 129
10 140 12 21 4 24 -23 8z"/>
<path d="M3254 495 c8 -32 -13 -42 -60 -27 -30 9 -40 7 -69 -11 -29 -19 -34
-28 -35 -59 0 -29 6 -41 26 -54 16 -11 23 -23 19 -33 -3 -9 7 -2 22 16 24 28
30 31 46 19 10 -8 17 -26 17 -44 0 -34 0 -34 -82 -17 -11 2 -26 -9 -39 -27
l-22 -30 23 12 c13 7 38 10 60 6 24 -4 48 0 69 10 28 14 31 20 31 60 0 35 -5
47 -25 60 -14 9 -22 21 -19 28 3 6 -5 -1 -18 -16 -31 -36 -58 -22 -58 28 0 23
4 33 11 28 6 -4 27 -10 45 -14 30 -7 36 -5 54 20 22 30 27 70 9 70 -7 0 -9
-10 -5 -25z"/>
<path d="M463 465 c-34 -9 -47 -27 -15 -18 10 2 30 0 45 -6 21 -8 27 -17 27
-41 0 -16 -2 -30 -5 -30 -14 0 -55 25 -55 34 0 6 -11 -10 -25 -36 -28 -52 -31
-84 -11 -110 17 -24 39 -23 61 2 16 17 16 20 3 15 -21 -8 -38 23 -38 69 0 39
6 42 45 24 22 -10 26 -18 24 -47 -5 -63 31 -102 61 -66 9 11 10 15 1 15 -9 0
-11 26 -9 93 l3 94 -40 9 c-25 6 -52 5 -72 -1z"/>
<path d="M646 461 c-12 -13 -14 -21 -7 -21 9 0 12 -25 10 -91 -1 -68 2 -94 13
-105 27 -27 41 7 39 92 -2 48 2 81 10 90 7 8 8 14 2 12 -6 -2 -19 7 -29 20
l-19 24 -19 -21z"/>
<path d="M746 461 c-15 -16 -15 -19 -1 -24 12 -5 15 -24 15 -89 0 -101 8 -118
45 -98 21 11 23 15 10 22 -18 11 -21 137 -4 170 8 15 8 19 -1 13 -6 -4 -19 0
-29 9 -16 15 -19 15 -35 -3z"/>
<path d="M955 471 c-3 -5 -19 -12 -35 -16 l-30 -7 0 -86 c0 -82 1 -87 28 -108
l27 -22 -27 -29 c-36 -37 -35 -44 3 -33 17 5 50 7 73 4 33 -5 47 -1 69 16 l27
22 -20 33 c-15 25 -20 50 -20 108 0 70 1 75 20 70 15 -4 20 0 20 16 0 18 -4
20 -24 15 -14 -3 -37 1 -54 10 -35 18 -48 20 -57 7z m33 -40 c20 -12 12 -141
-10 -154 -32 -21 -48 8 -48 89 0 70 1 74 23 74 12 0 28 -4 35 -9z m22 -163 c0
-6 12 -27 26 -46 l27 -34 -24 8 c-13 4 -42 10 -63 13 l-39 6 27 33 c28 33 46
41 46 20z"/>
<path d="M1139 465 c-20 -20 -10 -198 12 -220 14 -14 18 -13 39 10 19 21 21
25 6 19 -17 -6 -18 -1 -15 89 3 79 1 97 -12 105 -12 8 -20 6 -30 -3z"/>
<path d="M2652 466 l-33 -10 43 -11 43 -10 2 -69 c2 -40 -2 -75 -9 -83 -8 -11
-7 -12 6 -7 10 4 16 1 16 -9 0 -8 6 -20 13 -26 11 -8 19 -5 38 15 17 18 19 23
6 18 -15 -5 -17 3 -17 83 0 49 4 93 10 99 5 6 -1 9 -18 9 -15 1 -36 3 -47 6
-11 3 -35 1 -53 -5z"/>
<path d="M1328 436 c-10 -7 -18 -22 -18 -32 1 -18 1 -18 12 1 6 11 19 25 27
32 9 7 12 12 6 12 -5 0 -18 -6 -27 -13z"/>
<path d="M2101 437 c8 -7 21 -21 27 -32 11 -19 11 -19 12 -1 0 19 -26 45 -45
45 -5 0 -3 -5 6 -12z"/>
<path d="M2630 435 c0 -5 4 -17 9 -24 7 -10 4 -23 -9 -41 -29 -41 -35 -77 -16
-105 18 -27 35 -32 53 -14 8 8 6 16 -8 30 -22 22 -26 84 -5 96 11 7 10 14 -5
38 -11 17 -19 26 -19 20z"/>
<path d="M1421 286 c-8 -9 -11 -19 -7 -23 9 -9 29 13 24 27 -2 8 -8 7 -17 -4z"/>
<path d="M2010 288 c0 -18 18 -34 28 -24 3 4 -2 14 -11 23 -16 16 -17 16 -17
1z"/>
<path d="M1330 65 c0 -30 3 -35 23 -34 17 1 18 2 4 6 -14 4 -17 12 -13 34 2
16 0 29 -5 29 -5 0 -9 -16 -9 -35z"/>
<path d="M1387 94 c-4 -4 1 -16 10 -26 15 -17 15 -20 3 -28 -11 -7 -11 -10 -2
-10 16 0 28 30 15 39 -6 3 -12 12 -14 19 -3 7 -8 10 -12 6z"/>
<path d="M1453 65 c0 -22 2 -30 4 -17 2 12 2 30 0 40 -3 9 -5 -1 -4 -23z"/>
<path d="M1490 64 c0 -31 3 -35 23 -32 23 3 37 42 20 59 -5 5 -9 -3 -8 -18 0
-14 -6 -28 -14 -31 -10 -3 -13 3 -9 27 2 17 1 31 -4 31 -4 0 -8 -16 -8 -36z"/>
<path d="M1927 68 c8 -46 13 -48 13 -5 0 21 -4 37 -10 37 -5 0 -7 -14 -3 -32z"/>
<path d="M1968 75 c-7 -34 3 -51 26 -42 15 6 16 51 1 65 -4 4 -5 -8 -2 -25 4
-18 2 -33 -3 -33 -5 0 -10 15 -12 33 l-3 32 -7 -30z"/>
<path d="M2020 86 c0 -8 4 -17 8 -20 4 -2 8 4 8 15 0 10 -4 19 -8 19 -4 0 -8
-6 -8 -14z"/>
<path d="M2051 80 c0 -15 -4 -30 -8 -36 -5 -5 -2 -4 5 2 8 6 12 22 9 35 -4 24
-4 24 -6 -1z"/>
<path d="M2081 84 c0 -11 3 -14 6 -6 3 7 2 16 -1 19 -3 4 -6 -2 -5 -13z"/>
<path d="M2106 62 c4 -14 0 -22 -13 -25 -17 -4 -17 -5 0 -6 21 -1 34 26 19 41
-8 8 -9 5 -6 -10z"/>
</g>
</svg>
