<?xml version="1.0" standalone="no"?>
<!DOCTYPE svg PUBLIC "-//W3C//DTD SVG 20010904//EN"
 "http://www.w3.org/TR/2001/REC-SVG-20010904/DTD/svg10.dtd">
<svg version="1.0" xmlns="http://www.w3.org/2000/svg"
 width="115.000000pt" height="103.000000pt" viewBox="0 0 115.000000 103.000000"
 preserveAspectRatio="xMidYMid meet">

<g transform="translate(0.000000,103.000000) scale(0.100000,-0.100000)"
fill="#e70000" stroke="none">
<path d="M544 1005 c-15 -24 -15 -27 0 -44 9 -10 23 -18 31 -18 8 0 22 8 31
18 15 17 15 20 0 44 -21 32 -41 32 -62 0z m41 5 c3 -5 -1 -10 -10 -10 -9 0
-13 5 -10 10 3 6 8 10 10 10 2 0 7 -4 10 -10z m-25 -30 c0 -5 -5 -10 -11 -10
-5 0 -7 5 -4 10 3 6 8 10 11 10 2 0 4 -4 4 -10z m45 0 c3 -5 1 -10 -4 -10 -6
0 -11 5 -11 10 0 6 2 10 4 10 3 0 8 -4 11 -10z"/>
<path d="M556 921 c16 -39 15 -50 -4 -60 -17 -9 -19 -8 -15 9 5 20 -17 50 -36
50 -6 0 -11 -7 -11 -15 0 -9 -9 -15 -23 -15 -30 0 -62 -24 -53 -38 4 -7 16
-12 26 -12 20 0 38 -40 26 -58 -3 -5 4 -18 15 -28 17 -15 37 -19 94 -19 57 0
77 4 94 19 11 10 18 23 15 28 -3 5 -3 20 0 34 5 17 13 24 31 24 18 0 25 5 25
20 0 15 -9 21 -40 26 -24 4 -40 12 -40 20 0 8 -5 14 -11 14 -19 0 -41 -30 -36
-50 6 -24 -6 -26 -23 -5 -10 12 -10 21 -1 41 14 32 15 30 -14 30 -19 0 -24 -4
-19 -15z m-71 -57 c19 -14 19 -14 -5 -11 -13 2 -26 9 -28 15 -5 16 9 14 33 -4z
m30 5 c11 -16 1 -19 -13 -3 -7 8 -8 14 -3 14 5 0 13 -5 16 -11z m133 -3 c-7
-8 -15 -12 -17 -11 -5 6 10 25 20 25 5 0 4 -6 -3 -14z m50 2 c-2 -6 -15 -13
-28 -15 -24 -3 -24 -3 -5 11 24 18 38 20 33 4z m-263 -8 c3 -5 1 -10 -4 -10
-6 0 -11 5 -11 10 0 6 2 10 4 10 3 0 8 -4 11 -10z m145 -10 c-9 -6 -8 -9 6
-13 13 -3 11 -5 -9 -6 -25 -1 -27 1 -17 19 6 11 16 18 22 14 7 -4 6 -9 -2 -14z
m150 10 c0 -5 -5 -10 -11 -10 -5 0 -7 5 -4 10 3 6 8 10 11 10 2 0 4 -4 4 -10z
m-135 -60 c4 -6 -5 -10 -20 -10 -15 0 -24 4 -20 10 3 6 12 10 20 10 8 0 17 -4
20 -10z"/>
<path d="M291 809 c-30 -16 -57 -27 -60 -24 -3 4 1 10 9 16 11 7 9 8 -9 6 -14
-2 -27 -9 -29 -15 -2 -7 -14 -12 -26 -12 -37 0 -99 -81 -90 -117 5 -17 1 -19
-24 -15 -23 3 -33 -1 -42 -18 -6 -12 -9 -24 -6 -27 3 -3 1 -14 -5 -25 -6 -11
-8 -22 -5 -25 11 -11 46 30 46 54 0 25 17 31 26 8 10 -25 -16 -85 -36 -85 -11
0 -18 -6 -16 -12 3 -7 7 -25 10 -39 3 -14 19 -40 36 -57 35 -37 38 -57 11 -72
-13 -6 -17 -17 -14 -30 4 -13 -1 -26 -12 -34 -10 -7 -24 -32 -31 -55 -18 -62
-6 -70 90 -57 42 5 73 12 67 15 -5 3 -16 24 -25 46 -9 23 -11 34 -3 25 6 -9
20 -14 31 -12 22 5 43 -13 27 -22 -6 -4 -11 -2 -11 3 0 6 -7 11 -16 11 -24 0
-12 -35 13 -38 13 -2 42 10 65 26 71 47 71 47 63 21 -11 -36 -26 -51 -39 -40
-8 7 -22 4 -41 -9 l-30 -20 57 3 c32 1 58 5 58 10 0 4 6 7 14 7 9 0 16 -12 18
-32 l3 -33 97 1 c88 1 97 0 101 -18 6 -21 27 -16 27 6 0 10 23 13 98 12 l97
-1 3 33 c2 20 9 32 18 32 8 0 14 -3 14 -7 0 -5 26 -9 58 -10 l57 -3 -30 20
c-19 13 -33 16 -41 9 -13 -11 -28 4 -39 40 -8 26 -8 26 63 -21 23 -16 52 -28
65 -26 25 3 37 38 13 38 -9 0 -16 -5 -16 -11 0 -5 -5 -7 -11 -3 -16 9 5 27 27
22 11 -2 25 3 31 12 8 9 6 -2 -3 -25 -9 -22 -20 -43 -25 -46 -6 -3 25 -10 67
-15 96 -13 108 -5 90 57 -7 23 -21 48 -31 55 -11 8 -16 21 -12 34 3 13 -1 24
-14 30 -27 15 -24 35 11 72 17 17 33 43 36 57 3 14 7 32 10 39 2 6 -5 12 -16
12 -20 0 -46 60 -36 85 9 23 26 17 26 -8 0 -24 35 -65 46 -54 3 3 1 14 -5 25
-6 11 -8 22 -5 25 3 3 0 15 -6 27 -9 17 -19 21 -42 18 -25 -4 -29 -2 -24 15 9
36 -53 117 -90 117 -12 0 -24 5 -26 12 -2 6 -15 13 -29 15 -18 2 -20 1 -9 -6
8 -6 12 -13 9 -16 -4 -3 -32 8 -63 24 -61 33 -77 25 -21 -11 19 -13 35 -29 35
-35 0 -18 19 -16 26 1 4 11 12 13 29 6 12 -5 32 -6 43 -3 20 5 40 -13 27 -25
-3 -3 -10 0 -15 8 -5 8 -12 11 -16 8 -3 -4 8 -19 26 -34 28 -24 31 -31 25 -63
-4 -20 -8 -37 -10 -39 -2 -2 -16 4 -32 14 -15 10 -29 19 -31 20 -1 0 2 13 7
28 12 31 1 34 -42 11 -31 -16 -54 -11 -60 13 -4 13 -5 12 -6 -3 0 -12 4 -26
11 -33 9 -9 9 -12 -1 -12 -7 0 -11 -6 -8 -14 3 -8 0 -19 -7 -25 -10 -8 -19 -5
-37 12 -15 13 -50 27 -88 35 -34 7 -77 20 -96 29 -30 14 -36 14 -87 -5 -29
-11 -75 -23 -102 -27 -29 -5 -58 -17 -73 -31 -19 -18 -29 -21 -39 -13 -7 6
-10 17 -7 25 3 8 -1 14 -8 14 -10 0 -10 3 -1 12 18 18 14 42 -8 56 -20 12 -20
12 -5 -11 14 -22 14 -25 1 -30 -9 -4 -28 0 -43 8 -43 23 -54 20 -42 -11 5 -15
8 -28 7 -28 -2 -1 -16 -10 -31 -20 -16 -10 -30 -16 -32 -14 -2 2 -6 19 -10 39
-6 32 -3 39 25 63 18 15 29 30 26 34 -4 3 -11 0 -16 -8 -5 -8 -12 -11 -15 -8
-13 12 7 30 27 25 11 -3 31 -2 43 3 17 7 25 5 29 -6 7 -17 26 -19 26 -1 0 6
16 22 35 35 19 12 35 27 35 32 0 6 -1 10 -2 9 -2 0 -27 -14 -57 -30z m-141
-73 c0 -2 -6 -9 -14 -15 -11 -9 -16 -9 -22 0 -4 8 -3 9 4 5 7 -4 12 -2 12 3 0
6 5 11 10 11 6 0 10 -2 10 -4z m870 -7 c0 -5 5 -7 12 -3 7 4 8 3 4 -5 -6 -9
-11 -9 -22 0 -17 14 -18 19 -4 19 6 0 10 -5 10 -11z m-759 -66 c13 -34 12 -34
-21 -5 -35 31 -38 42 -9 35 11 -3 25 -17 30 -30z m650 -4 c-19 -17 -31 -23
-27 -14 3 9 6 21 6 26 0 10 42 29 49 23 3 -3 -10 -18 -28 -35z m-797 23 c2 -4
1 -14 -3 -21 -6 -9 -10 -7 -14 8 -5 20 7 29 17 13z m939 -13 c-4 -15 -8 -17
-14 -8 -8 14 -3 29 11 29 4 0 6 -9 3 -21z m-933 -43 c0 -8 4 -16 10 -18 5 -1
7 -13 4 -25 -4 -13 -10 -20 -16 -17 -5 3 -6 14 -3 24 3 10 1 21 -5 25 -13 8
-13 25 0 25 6 0 10 -6 10 -14z m130 10 c0 -4 -77 -56 -83 -56 -2 0 -4 7 -4 15
0 8 3 12 7 10 3 -2 19 5 36 16 27 18 44 24 44 15z m694 -15 c17 -11 33 -18 36
-16 4 2 7 -2 7 -10 0 -8 -2 -15 -4 -15 -6 0 -83 52 -83 56 0 9 17 3 44 -15z
m106 10 c0 -6 -5 -13 -10 -16 -6 -4 -8 -15 -5 -25 3 -10 2 -21 -3 -24 -6 -3
-12 4 -16 17 -3 12 -1 24 4 25 6 2 10 10 10 18 0 8 5 14 10 14 6 0 10 -4 10
-9z m-672 -48 c5 -107 27 -157 104 -229 73 -69 93 -79 121 -61 43 29 116 106
136 144 l20 38 1 -32 c0 -21 5 -33 14 -33 22 0 33 23 25 55 -6 28 -7 29 -9 5
-2 -18 -4 -20 -7 -7 -2 9 -9 17 -15 17 -5 0 -7 12 -4 28 3 15 7 48 8 75 2 49
6 55 26 35 18 -18 14 -32 -5 -17 -15 13 -15 12 -5 -8 7 -12 17 -25 22 -28 16
-10 12 -22 -10 -28 -11 -3 -20 -11 -20 -19 0 -9 2 -10 8 -1 4 6 24 14 44 18
36 7 62 35 33 35 -21 0 -19 14 6 35 19 18 22 18 47 3 41 -25 49 -44 29 -66
-26 -29 -89 -47 -115 -33 -14 7 -23 8 -27 1 -3 -5 1 -10 9 -10 24 0 39 -36 24
-59 -10 -17 -9 -25 10 -51 13 -17 20 -34 17 -39 -3 -5 -38 -19 -78 -32 -95
-29 -159 -63 -145 -77 7 -7 16 -7 28 0 10 7 25 8 36 3 11 -5 22 -7 27 -7 4 1
7 -5 7 -13 0 -13 -4 -14 -21 -4 -12 6 -30 8 -41 6 -11 -3 -29 0 -39 6 -16 10
-21 9 -29 -3 -8 -13 -10 -13 -10 2 0 9 6 18 13 21 6 2 -10 4 -38 4 -27 0 -44
-2 -37 -4 6 -3 12 -12 12 -21 0 -15 -2 -15 -10 -2 -8 12 -13 13 -29 3 -10 -6
-28 -9 -39 -6 -11 2 -29 0 -41 -6 -17 -10 -21 -9 -21 4 0 8 3 14 8 13 4 0 15
2 26 7 11 5 26 4 36 -3 12 -7 21 -7 28 0 14 14 -50 48 -145 77 -40 13 -75 27
-78 32 -3 5 4 22 17 39 19 26 20 34 10 51 -15 23 0 59 24 59 8 0 12 5 9 10 -4
7 -13 6 -27 -1 -26 -14 -89 4 -115 33 -20 22 -12 41 29 66 25 15 28 15 47 -3
25 -21 27 -35 6 -35 -29 0 -3 -28 33 -35 20 -4 40 -12 44 -18 6 -9 8 -8 8 1 0
8 -9 16 -20 19 -22 6 -26 18 -10 28 5 3 15 16 22 28 10 20 10 21 -5 8 -19 -15
-23 -1 -5 17 20 20 24 14 26 -35z m242 24 c31 -16 39 -61 14 -88 -14 -16 -15
-24 -6 -44 17 -36 -4 -41 -23 -5 -21 41 -55 41 -55 0 0 -25 4 -30 25 -30 14 0
25 -4 25 -10 0 -5 -16 -10 -35 -10 -34 0 -35 1 -36 43 -1 23 -4 32 -6 20 -10
-51 -23 -18 -23 57 l0 80 48 0 c26 0 58 -6 72 -13z m-498 -76 c17 -32 17 -34
-5 -52 -29 -24 -36 -24 -47 4 -5 12 -9 16 -9 8 -1 -8 6 -23 16 -33 15 -16 15
-18 0 -18 -30 0 -40 36 -21 75 19 40 28 46 19 13 -5 -20 -5 -21 5 -5 7 10 9
25 6 32 -11 29 20 9 36 -24z m941 23 c-2 -7 0 -21 7 -31 10 -16 10 -15 5 5 -9
33 0 27 19 -13 19 -39 9 -75 -21 -75 -15 0 -15 2 0 18 10 10 17 25 16 33 0 8
-4 4 -9 -8 -11 -27 -18 -28 -47 -4 -21 17 -21 20 -6 53 14 32 48 52 36 22z
m-852 -90 c8 -10 1 -24 -32 -64 -23 -27 -46 -50 -50 -50 -5 0 -13 -10 -20 -22
l-11 -21 29 21 c16 12 36 28 43 37 29 35 29 12 -1 -31 -23 -34 -36 -44 -50
-41 -15 4 -19 0 -19 -25 0 -19 -4 -27 -11 -22 -7 4 -10 1 -7 -7 2 -8 19 -18
36 -24 18 -5 32 -13 32 -18 0 -5 -8 -6 -17 -2 -31 12 -89 18 -74 7 8 -6 9 -12
3 -16 -14 -9 -23 21 -16 52 10 39 15 46 25 31 6 -9 9 0 9 27 0 29 5 44 16 48
13 5 15 15 9 54 -5 39 -3 51 12 64 33 29 71 30 94 2z m822 -3 c15 -12 17 -24
12 -63 -6 -39 -4 -49 9 -54 11 -4 16 -19 16 -48 0 -27 3 -36 9 -27 10 15 15 8
25 -31 7 -31 -2 -61 -16 -52 -6 4 -5 10 3 16 15 11 -43 5 -73 -7 -10 -4 -18
-3 -18 2 0 5 14 13 32 18 17 6 34 16 36 24 3 8 0 11 -7 7 -7 -5 -11 3 -11 22
0 25 -4 29 -19 25 -14 -3 -27 7 -50 41 -30 43 -30 66 -1 31 15 -18 70 -59 70
-52 0 2 -27 33 -60 68 -33 35 -59 68 -57 74 5 16 48 34 66 28 9 -3 24 -13 34
-22z m-744 -62 c-7 -4 -16 -6 -18 -3 -3 3 1 9 9 14 11 7 12 10 2 10 -7 0 -10
5 -6 11 4 8 10 6 17 -6 7 -12 5 -20 -4 -26z m501 37 c0 -3 -4 -8 -10 -11 -5
-3 -10 -1 -10 4 0 6 5 11 10 11 6 0 10 -2 10 -4z m80 -16 c-9 -6 -9 -9 1 -12
8 -3 12 -8 9 -11 -11 -12 -31 10 -24 26 3 9 11 14 16 11 6 -4 6 -9 -2 -14z
m-655 -10 c-3 -5 -11 -10 -16 -10 -6 0 -7 5 -4 10 3 6 11 10 16 10 6 0 7 -4 4
-10z m740 0 c3 -5 2 -10 -4 -10 -5 0 -13 5 -16 10 -3 6 -2 10 4 10 5 0 13 -4
16 -10z m-683 -90 c21 -6 40 -15 43 -20 8 -14 -68 -31 -104 -24 -35 7 -37 13
-15 55 13 26 17 29 27 16 7 -8 29 -20 49 -27z m10 20 c37 -23 35 -25 -11 -9
-17 6 -31 15 -31 20 0 13 5 11 42 -11z m628 11 c0 -8 -52 -31 -69 -31 -8 0 52
38 62 39 4 1 7 -3 7 -8z m45 -21 c21 -41 19 -47 -16 -54 -37 -7 -112 10 -104
24 3 5 24 15 46 22 23 6 43 18 46 25 7 19 11 17 28 -17z m-785 -40 c0 -5 -5
-10 -11 -10 -5 0 -7 5 -4 10 3 6 8 10 11 10 2 0 4 -4 4 -10z m825 0 c3 -5 1
-10 -4 -10 -6 0 -11 5 -11 10 0 6 2 10 4 10 3 0 8 -4 11 -10z m-770 -30 c7
-12 -2 -12 -30 0 -19 8 -19 9 2 9 12 1 25 -3 28 -9z m157 -18 c-11 -11 -30
-23 -43 -27 -22 -7 -23 -7 -8 16 14 20 57 41 67 33 2 -1 -5 -11 -16 -22z m437
-11 c15 -23 14 -23 -8 -16 -21 6 -61 39 -61 49 0 13 56 -14 69 -33z m136 29
c-28 -12 -37 -12 -30 0 3 6 16 10 28 9 21 0 21 -1 2 -9z m-555 -30 c0 -5 -5
-10 -11 -10 -5 0 -7 5 -4 10 3 6 8 10 11 10 2 0 4 -4 4 -10z m365 0 c3 -5 1
-10 -4 -10 -6 0 -11 5 -11 10 0 6 2 10 4 10 3 0 8 -4 11 -10z m-177 -34 c13
17 14 18 8 1 -3 -10 -6 -25 -6 -33 0 -8 -7 -14 -15 -14 -8 0 -15 6 -15 14 0 8
-3 23 -6 33 -5 16 -4 16 7 -1 12 -19 12 -19 27 0z m-138 -6 c0 -5 -4 -10 -9
-10 -6 0 -13 5 -16 10 -3 6 1 10 9 10 9 0 16 -4 16 -10z m44 -23 c-27 -16
-109 -26 -119 -15 -7 8 -5 9 8 5 9 -4 17 -2 17 3 0 6 20 10 45 10 38 0 43 3
38 17 -6 15 -5 16 9 3 13 -12 13 -16 2 -23z m172 18 c-4 -12 4 -15 39 -15 25
0 45 -4 45 -10 0 -5 7 -6 17 -3 11 4 14 3 9 -5 -7 -12 -44 -8 -103 10 -27 8
-30 12 -20 23 16 19 20 18 13 0z m59 5 c-3 -5 -10 -10 -16 -10 -5 0 -9 5 -9
10 0 6 7 10 16 10 8 0 12 -4 9 -10z"/>
<path d="M349 463 c-6 -33 5 -53 28 -53 7 0 13 11 13 26 0 19 -4 25 -14 21
-10 -4 -16 2 -18 16 -3 17 -5 15 -9 -10z m31 -33 c0 -5 -2 -10 -4 -10 -3 0 -8
5 -11 10 -3 6 -1 10 4 10 6 0 11 -4 11 -10z"/>
<path d="M521 553 c2 -31 3 -33 6 -10 5 34 23 36 23 2 0 -18 5 -25 19 -25 34
0 51 12 51 35 0 26 -17 35 -66 35 -33 0 -34 -1 -33 -37z"/>
<path d="M216 741 c-3 -5 3 -11 14 -14 13 -3 20 0 20 9 0 15 -26 19 -34 5z"/>
<path d="M900 736 c0 -9 7 -12 20 -9 11 3 17 9 14 14 -8 14 -34 10 -34 -5z"/>
<path d="M60 50 c0 -48 1 -50 28 -49 23 2 24 2 5 6 -27 5 -31 39 -5 46 16 4
16 5 0 6 -26 2 -22 29 5 34 19 4 18 4 -5 6 -27 1 -28 -1 -28 -49z"/>
<path d="M130 86 c-9 -12 -7 -18 9 -33 26 -21 27 -40 4 -46 -15 -4 -15 -5 -2
-6 9 0 23 6 30 15 11 14 10 19 -9 34 -25 20 -28 36 -9 43 7 4 8 6 1 6 -6 1
-17 -5 -24 -13z"/>
<path d="M193 93 c13 -3 17 -15 17 -49 0 -24 5 -44 10 -44 6 0 10 20 10 44 0
34 4 46 18 49 9 3 -3 5 -28 5 -25 0 -37 -2 -27 -5z"/>
<path d="M270 50 c0 -41 3 -50 18 -50 25 0 42 20 42 50 0 30 -17 50 -42 50
-15 0 -18 -9 -18 -50z m45 0 c0 -25 -5 -36 -17 -38 -15 -3 -18 4 -18 38 0 34
3 41 18 38 12 -2 17 -13 17 -38z"/>
<path d="M840 85 c-8 -9 -9 -15 -2 -15 6 0 13 -17 15 -37 3 -31 4 -29 5 15 2
57 1 60 -18 37z"/>
<path d="M905 88 c-3 -7 -6 -29 -7 -48 -3 -31 0 -35 22 -35 23 0 25 4 23 40
-1 22 -2 43 -2 48 -2 12 -31 8 -36 -5z m25 -13 c0 -8 -4 -15 -10 -15 -5 0 -10
7 -10 15 0 8 5 15 10 15 6 0 10 -7 10 -15z m3 -39 c6 -15 -1 -26 -15 -26 -4 0
-8 9 -8 20 0 23 15 27 23 6z"/>
<path d="M977 94 c-13 -13 -7 -43 10 -53 14 -8 15 -12 4 -25 -12 -14 -12 -16
3 -10 18 7 30 42 24 71 -3 18 -29 29 -41 17z m33 -24 c0 -11 -7 -20 -15 -20
-8 0 -15 9 -15 20 0 11 7 20 15 20 8 0 15 -9 15 -20z"/>
<path d="M1040 80 c0 -13 7 -20 20 -20 15 0 20 -7 20 -26 0 -21 -4 -25 -20
-21 -11 3 -18 1 -14 -4 10 -16 33 -10 45 13 10 18 8 24 -10 39 -26 21 -26 26
-3 32 10 3 6 5 -10 6 -22 1 -28 -4 -28 -19z"/>
</g>
</svg>
