<svg version="1.1" id="Layer_1" xmlns="http://www.w3.org/2000/svg" xmlns:xlink="http://www.w3.org/1999/xlink" x="0px" y="0px"
	 width="100%" viewBox="0 0 524 494" enable-background="new 0 0 524 494" xml:space="preserve">
<path fill="#FEFEFE" opacity="1.000000" stroke="none" 
	d="
M305.000000,495.000000 
	C203.333359,495.000000 102.166718,495.000000 1.000054,495.000000 
	C1.000036,330.333405 1.000036,165.666794 1.000018,1.000143 
	C175.666565,1.000095 350.333130,1.000095 524.999756,1.000048 
	C524.999878,165.666519 524.999878,330.333038 524.999939,494.999786 
	C451.833344,495.000000 378.666656,495.000000 305.000000,495.000000 
M187.133163,261.630920 
	C187.338654,261.251648 187.544159,260.872375 187.569580,259.798309 
	C172.050232,230.890060 156.481079,202.008255 141.087326,173.033279 
	C139.519577,170.082382 137.789352,169.158875 134.518311,169.198288 
	C103.691505,169.569839 72.862511,169.758789 42.034130,169.998260 
	C40.632683,170.009155 39.231075,169.999649 36.376476,169.999649 
	C46.514339,178.013565 55.441467,185.070389 64.337540,192.102676 
	C55.032650,209.931870 46.122631,227.260788 36.964695,244.457687 
	C31.300329,255.094330 31.419397,265.665161 37.173027,275.960938 
	C45.679737,291.183136 58.176945,302.298370 75.388603,305.769409 
	C88.837990,308.481689 102.803177,308.605591 116.524704,310.019958 
	C120.135910,310.392151 122.167290,309.109802 124.066154,305.957916 
	C135.068176,287.695740 146.323212,269.585938 157.508224,251.434174 
	C158.425034,249.946304 159.458359,248.530182 160.402054,247.133270 
	C169.543686,251.968399 178.209045,256.551605 187.133163,261.630920 
M238.499680,26.073008 
	C223.674805,25.917818 208.832825,26.144682 194.030670,25.481991 
	C182.942322,24.985565 173.874924,28.909639 165.691330,35.751553 
	C155.813263,44.010151 148.794113,54.509651 142.634415,65.642845 
	C131.995117,84.872604 121.400627,104.127167 110.796967,123.376625 
	C110.099014,124.643661 109.482628,125.955643 108.698616,127.502625 
	C140.697128,145.261810 172.393372,162.853241 204.260925,180.539749 
	C204.999466,179.436340 205.593506,178.663010 206.068695,177.822479 
	C226.798965,141.155075 247.610107,104.532951 268.202606,67.788277 
	C279.100861,48.341660 294.133881,34.164246 316.138000,28.319433 
	C316.653595,28.182474 317.106110,27.807993 317.588043,27.544306 
	C317.521606,27.056263 317.455200,26.568222 317.388763,26.080181 
	C291.425720,26.080181 265.462708,26.080181 238.499680,26.073008 
M445.445770,171.238785 
	C444.701691,171.605011 443.919708,171.910324 443.218994,172.346222 
	C413.962494,190.546326 384.712158,208.756302 355.469147,226.978073 
	C354.670471,227.475723 353.960632,228.115891 353.024475,228.830795 
	C375.067200,264.630981 396.610382,300.419037 418.999969,335.669495 
	C431.491150,355.335754 437.796143,375.758270 432.792053,399.217834 
	C434.308197,397.973541 435.542938,396.604767 436.432770,395.039856 
	C455.602478,361.328186 474.617310,327.527710 493.955048,293.912903 
	C498.715637,285.637604 500.672455,276.852631 498.383759,268.007355 
	C495.743744,257.804260 492.602539,247.316605 487.385437,238.276093 
	C474.334229,215.660309 459.986572,193.792679 445.445770,171.238785 
M49.753380,307.498169 
	C48.293262,306.901398 46.833145,306.304626 44.135658,305.202148 
	C46.281250,309.034332 47.672977,311.445312 48.995556,313.893616 
	C66.012245,345.394257 83.156921,376.827087 99.936157,408.453766 
	C104.403534,416.874146 110.897469,422.505920 119.309219,426.358124 
	C131.722809,432.042938 144.932693,433.284363 158.348541,433.287689 
	C180.509018,433.293152 202.669495,433.248138 224.829971,433.224792 
	C226.592987,433.222931 228.356018,433.224548 230.106903,433.224548 
	C230.106903,396.436676 230.106903,360.348297 230.106903,323.981232 
	C229.086487,323.892487 228.291107,323.766296 227.495117,323.762268 
	C185.175659,323.548370 142.855911,323.163025 100.536789,323.224365 
	C82.116493,323.251038 65.268723,318.995880 49.753380,307.498169 
M312.617615,312.097900 
	C299.072357,336.009552 285.568817,359.945099 271.922058,383.798706 
	C270.435883,386.396515 270.165771,388.211700 271.912933,390.909668 
	C288.754333,416.916412 305.418854,443.037659 322.155334,469.112457 
	C322.805084,470.124725 323.670563,470.998596 324.884674,472.487976 
	C326.189240,460.239868 327.403168,448.842987 328.636078,437.267426 
	C330.420502,437.066254 331.878113,436.858978 333.342987,436.743347 
	C351.946075,435.274811 370.550659,433.825348 389.153900,432.358459 
	C400.359558,431.474854 408.696838,425.839081 414.122711,416.262756 
	C422.173126,402.054352 424.501709,386.781860 420.478210,370.890228 
	C416.750763,356.167847 408.729034,343.411560 401.082489,330.502258 
	C399.425720,327.705231 397.613403,326.715057 394.343597,326.765564 
	C373.015717,327.095093 351.684113,327.187042 330.353729,327.353149 
	C328.566467,327.367065 326.779022,327.355011 324.714600,327.355011 
	C323.941376,316.697388 323.205658,306.556335 322.469910,296.415283 
	C322.163208,296.379913 321.856506,296.344513 321.549774,296.309143 
	C318.688293,301.355530 315.826813,306.401917 312.617615,312.097900 
M350.542114,175.671127 
	C360.200531,175.795013 369.863953,175.777206 379.514679,176.119003 
	C382.928070,176.239883 384.810181,175.254227 386.495331,172.134262 
	C401.366058,144.602417 416.441772,117.181328 431.437012,89.716629 
	C431.988373,88.706787 432.335632,87.585503 433.026550,85.915451 
	C421.374817,90.811531 410.522980,95.371506 399.542145,99.985680 
	C398.217194,98.054146 397.073486,96.434616 395.978333,94.782906 
	C386.134460,79.936554 376.253357,65.114594 366.478210,50.223114 
	C360.439697,41.023991 351.891205,36.109486 341.042297,35.815811 
	C321.804047,35.295044 305.137909,41.774467 293.015900,56.916496 
	C285.043884,66.874580 278.641785,78.082062 271.389862,88.629112 
	C269.534180,91.327980 269.648926,93.413162 271.279266,96.248260 
	C282.066833,115.007210 292.652557,133.882248 303.291962,152.726288 
	C304.077454,154.117477 304.768707,155.561874 305.614105,157.194687 
	C296.565094,162.829834 287.861938,168.249619 279.158783,173.669388 
	C279.339447,174.331253 279.520111,174.993134 279.700775,175.654999 
	C302.986755,175.654999 326.272736,175.654999 350.542114,175.671127 
M292.502991,273.579987 
	C296.097046,273.579987 299.691101,273.579987 303.565369,273.579987 
	C303.565369,278.074463 303.396423,281.897400 303.602509,285.700043 
	C303.968445,292.452118 308.130981,296.380035 314.406738,296.185394 
	C320.371033,296.000427 324.079926,291.965698 324.253845,285.314941 
	C324.352783,281.532654 324.271759,277.745697 324.271759,273.475372 
	C328.193237,273.475372 331.611694,273.475372 335.230042,273.475372 
	C335.230042,260.191650 335.432678,247.395386 335.140381,234.610428 
	C335.004272,228.657486 331.346924,224.640320 326.257233,221.628860 
	C324.217773,220.422165 322.180634,218.389877 321.264832,216.252457 
	C317.864990,208.317703 314.906860,200.192474 311.831940,192.120087 
	C309.092194,184.927643 303.864716,181.168884 296.225800,181.134476 
	C276.243622,181.044434 256.260406,181.032440 236.278427,181.141266 
	C228.888046,181.181503 223.662445,184.733215 220.942810,191.754669 
	C217.702805,200.119537 214.547913,208.522064 211.051514,216.779297 
	C210.263885,218.639359 208.490021,220.469757 206.697418,221.443680 
	C201.292358,224.380249 197.596542,228.647293 197.422028,234.723770 
	C197.055374,247.489792 197.310699,260.273682 197.310699,273.539917 
	C200.998001,273.539917 204.411652,273.539917 208.257614,273.539917 
	C208.257614,277.808929 208.122635,281.605347 208.287064,285.388763 
	C208.585022,292.244171 212.595200,296.267303 218.805054,296.180542 
	C224.968689,296.094452 228.859863,291.899902 228.996002,285.080505 
	C229.071457,281.300690 229.009521,277.518097 229.009521,273.579956 
	C250.209717,273.579956 270.854736,273.579956 292.502991,273.579987 
z"/>
<path fill="#D12B3F" opacity="1.000000" stroke="none" 
	d="
M238.999664,26.076595 
	C265.462708,26.080181 291.425720,26.080181 317.388763,26.080181 
	C317.455200,26.568222 317.521606,27.056263 317.588043,27.544306 
	C317.106110,27.807993 316.653595,28.182474 316.138000,28.319433 
	C294.133881,34.164246 279.100861,48.341660 268.202606,67.788277 
	C247.610107,104.532951 226.798965,141.155075 206.068695,177.822479 
	C205.593506,178.663010 204.999466,179.436340 204.260925,180.539749 
	C172.393372,162.853241 140.697128,145.261810 108.698616,127.502625 
	C109.482628,125.955643 110.099014,124.643661 110.796967,123.376625 
	C121.400627,104.127167 131.995117,84.872604 142.634415,65.642845 
	C148.794113,54.509651 155.813263,44.010151 165.691330,35.751553 
	C173.874924,28.909639 182.942322,24.985565 194.030670,25.481991 
	C208.832825,26.144682 223.674805,25.917818 238.999664,26.076595 
z"/>
<path fill="#D12B3F" opacity="1.000000" stroke="none" 
	d="
M445.802429,171.431839 
	C459.986572,193.792679 474.334229,215.660309 487.385437,238.276093 
	C492.602539,247.316605 495.743744,257.804260 498.383759,268.007355 
	C500.672455,276.852631 498.715637,285.637604 493.955048,293.912903 
	C474.617310,327.527710 455.602478,361.328186 436.432770,395.039856 
	C435.542938,396.604767 434.308197,397.973541 432.792053,399.217834 
	C437.796143,375.758270 431.491150,355.335754 418.999969,335.669495 
	C396.610382,300.419037 375.067200,264.630981 353.024475,228.830795 
	C353.960632,228.115891 354.670471,227.475723 355.469147,226.978073 
	C384.712158,208.756302 413.962494,190.546326 443.218994,172.346222 
	C443.919708,171.910324 444.701691,171.605011 445.802429,171.431839 
z"/>
<path fill="#D12B3F" opacity="1.000000" stroke="none" 
	d="
M50.045586,307.737000 
	C65.268723,318.995880 82.116493,323.251038 100.536789,323.224365 
	C142.855911,323.163025 185.175659,323.548370 227.495117,323.762268 
	C228.291107,323.766296 229.086487,323.892487 230.106903,323.981232 
	C230.106903,360.348297 230.106903,396.436676 230.106903,433.224548 
	C228.356018,433.224548 226.592987,433.222931 224.829971,433.224792 
	C202.669495,433.248138 180.509018,433.293152 158.348541,433.287689 
	C144.932693,433.284363 131.722809,432.042938 119.309219,426.358124 
	C110.897469,422.505920 104.403534,416.874146 99.936157,408.453766 
	C83.156921,376.827087 66.012245,345.394257 48.995556,313.893616 
	C47.672977,311.445312 46.281250,309.034332 44.135658,305.202148 
	C46.833145,306.304626 48.293262,306.901398 50.045586,307.737000 
z"/>
<path fill="#D12B3F" opacity="1.000000" stroke="none" 
	d="
M186.874405,261.134827 
	C178.209045,256.551605 169.543686,251.968399 160.402054,247.133270 
	C159.458359,248.530182 158.425034,249.946304 157.508224,251.434174 
	C146.323212,269.585938 135.068176,287.695740 124.066154,305.957916 
	C122.167290,309.109802 120.135910,310.392151 116.524704,310.019958 
	C102.803177,308.605591 88.837990,308.481689 75.388603,305.769409 
	C58.176945,302.298370 45.679737,291.183136 37.173027,275.960938 
	C31.419397,265.665161 31.300329,255.094330 36.964695,244.457687 
	C46.122631,227.260788 55.032650,209.931870 64.337540,192.102676 
	C55.441467,185.070389 46.514339,178.013565 36.376476,169.999649 
	C39.231075,169.999649 40.632683,170.009155 42.034130,169.998260 
	C72.862511,169.758789 103.691505,169.569839 134.518311,169.198288 
	C137.789352,169.158875 139.519577,170.082382 141.087326,173.033279 
	C156.481079,202.008255 172.050232,230.890060 187.430389,260.291931 
	C187.152252,260.902008 187.013321,261.018433 186.874405,261.134827 
z"/>
<path fill="#D12B3F" opacity="1.000000" stroke="none" 
	d="
M312.791443,311.773071 
	C315.826813,306.401917 318.688293,301.355530 321.549774,296.309143 
	C321.856506,296.344513 322.163208,296.379913 322.469910,296.415283 
	C323.205658,306.556335 323.941376,316.697388 324.714600,327.355011 
	C326.779022,327.355011 328.566467,327.367065 330.353729,327.353149 
	C351.684113,327.187042 373.015717,327.095093 394.343597,326.765564 
	C397.613403,326.715057 399.425720,327.705231 401.082489,330.502258 
	C408.729034,343.411560 416.750763,356.167847 420.478210,370.890228 
	C424.501709,386.781860 422.173126,402.054352 414.122711,416.262756 
	C408.696838,425.839081 400.359558,431.474854 389.153900,432.358459 
	C370.550659,433.825348 351.946075,435.274811 333.342987,436.743347 
	C331.878113,436.858978 330.420502,437.066254 328.636078,437.267426 
	C327.403168,448.842987 326.189240,460.239868 324.884674,472.487976 
	C323.670563,470.998596 322.805084,470.124725 322.155334,469.112457 
	C305.418854,443.037659 288.754333,416.916412 271.912933,390.909668 
	C270.165771,388.211700 270.435883,386.396515 271.922058,383.798706 
	C285.568817,359.945099 299.072357,336.009552 312.791443,311.773071 
z"/>
<path fill="#D12B3F" opacity="1.000000" stroke="none" 
	d="
M350.050415,175.663055 
	C326.272736,175.654999 302.986755,175.654999 279.700775,175.654999 
	C279.520111,174.993134 279.339447,174.331253 279.158783,173.669388 
	C287.861938,168.249619 296.565094,162.829834 305.614105,157.194687 
	C304.768707,155.561874 304.077454,154.117477 303.291962,152.726288 
	C292.652557,133.882248 282.066833,115.007210 271.279266,96.248260 
	C269.648926,93.413162 269.534180,91.327980 271.389862,88.629112 
	C278.641785,78.082062 285.043884,66.874580 293.015900,56.916496 
	C305.137909,41.774467 321.804047,35.295044 341.042297,35.815811 
	C351.891205,36.109486 360.439697,41.023991 366.478210,50.223114 
	C376.253357,65.114594 386.134460,79.936554 395.978333,94.782906 
	C397.073486,96.434616 398.217194,98.054146 399.542145,99.985680 
	C410.522980,95.371506 421.374817,90.811531 433.026550,85.915451 
	C432.335632,87.585503 431.988373,88.706787 431.437012,89.716629 
	C416.441772,117.181328 401.366058,144.602417 386.495331,172.134262 
	C384.810181,175.254227 382.928070,176.239883 379.514679,176.119003 
	C369.863953,175.777206 360.200531,175.795013 350.050415,175.663055 
z"/>
<path fill="#D12B3F" opacity="1.000000" stroke="none" 
	d="
M292.001343,273.579956 
	C270.854736,273.579956 250.209717,273.579956 229.009521,273.579956 
	C229.009521,277.518097 229.071457,281.300690 228.996002,285.080505 
	C228.859863,291.899902 224.968689,296.094452 218.805054,296.180542 
	C212.595200,296.267303 208.585022,292.244171 208.287064,285.388763 
	C208.122635,281.605347 208.257614,277.808929 208.257614,273.539917 
	C204.411652,273.539917 200.998001,273.539917 197.310699,273.539917 
	C197.310699,260.273682 197.055374,247.489792 197.422028,234.723770 
	C197.596542,228.647293 201.292358,224.380249 206.697418,221.443680 
	C208.490021,220.469757 210.263885,218.639359 211.051514,216.779297 
	C214.547913,208.522064 217.702805,200.119537 220.942810,191.754669 
	C223.662445,184.733215 228.888046,181.181503 236.278427,181.141266 
	C256.260406,181.032440 276.243622,181.044434 296.225800,181.134476 
	C303.864716,181.168884 309.092194,184.927643 311.831940,192.120087 
	C314.906860,200.192474 317.864990,208.317703 321.264832,216.252457 
	C322.180634,218.389877 324.217773,220.422165 326.257233,221.628860 
	C331.346924,224.640320 335.004272,228.657486 335.140381,234.610428 
	C335.432678,247.395386 335.230042,260.191650 335.230042,273.475372 
	C331.611694,273.475372 328.193237,273.475372 324.271759,273.475372 
	C324.271759,277.745697 324.352783,281.532654 324.253845,285.314941 
	C324.079926,291.965698 320.371033,296.000427 314.406738,296.185394 
	C308.130981,296.380035 303.968445,292.452118 303.602509,285.700043 
	C303.396423,281.897400 303.565369,278.074463 303.565369,273.579987 
	C299.691101,273.579987 296.097046,273.579987 292.001343,273.579956 
M264.499817,220.293106 
	C279.876251,220.293106 295.252716,220.293106 311.113098,220.293106 
	C308.007996,211.970795 305.163147,204.371948 302.339417,196.765274 
	C301.187256,193.661560 299.228302,191.820602 295.684448,191.828629 
	C276.045898,191.873047 256.405701,191.744888 236.770706,192.013306 
	C234.774475,192.040588 231.772949,193.865921 231.007523,195.626282 
	C227.583878,203.500183 224.801773,211.653015 221.800369,219.672195 
	C222.478836,219.991638 222.767944,220.246475 223.057602,220.247101 
	C236.538315,220.276337 250.019043,220.283463 264.499817,220.293106 
M209.946884,244.463104 
	C213.382996,251.133209 219.208298,253.112244 224.418762,249.379654 
	C228.313507,246.589600 229.659241,241.302490 227.572388,236.989502 
	C225.571701,232.854599 220.762741,230.708740 216.310135,231.964035 
	C211.501877,233.319595 209.158310,237.539703 209.946884,244.463104 
M310.297943,232.145340 
	C305.529907,234.415222 303.232208,238.190506 304.281616,243.385071 
	C305.136414,247.616211 307.918671,250.397827 312.367767,251.010864 
	C316.363434,251.561432 320.162750,250.181671 321.471039,246.556122 
	C322.579926,243.483246 322.737915,239.333817 321.566498,236.347229 
	C319.903229,232.106400 315.652008,230.935242 310.297943,232.145340 
z"/>
<path fill="#D12B3F" opacity="1.000000" stroke="none" 
	d="
M187.520432,260.639343 
	C187.544159,260.872375 187.338654,261.251648 187.003784,261.382874 
	C187.013321,261.018433 187.152252,260.902008 187.520432,260.639343 
z"/>
<path fill="#FEFEFE" opacity="1.000000" stroke="none" 
	d="
M263.999817,220.293121 
	C250.019043,220.283463 236.538315,220.276337 223.057602,220.247101 
	C222.767944,220.246475 222.478836,219.991638 221.800369,219.672195 
	C224.801773,211.653015 227.583878,203.500183 231.007523,195.626282 
	C231.772949,193.865921 234.774475,192.040588 236.770706,192.013306 
	C256.405701,191.744888 276.045898,191.873047 295.684448,191.828629 
	C299.228302,191.820602 301.187256,193.661560 302.339417,196.765274 
	C305.163147,204.371948 308.007996,211.970795 311.113098,220.293106 
	C295.252716,220.293106 279.876251,220.293106 263.999817,220.293121 
z"/>
<path fill="#F7F7F7" opacity="1.000000" stroke="none" 
	d="
M209.863495,244.092987 
	C209.158310,237.539703 211.501877,233.319595 216.310135,231.964035 
	C220.762741,230.708740 225.571701,232.854599 227.572388,236.989502 
	C229.659241,241.302490 228.313507,246.589600 224.418762,249.379654 
	C219.208298,253.112244 213.382996,251.133209 209.863495,244.092987 
z"/>
<path fill="#F9F9F9" opacity="1.000000" stroke="none" 
	d="
M310.698730,232.045685 
	C315.652008,230.935242 319.903229,232.106400 321.566498,236.347229 
	C322.737915,239.333817 322.579926,243.483246 321.471039,246.556122 
	C320.162750,250.181671 316.363434,251.561432 312.367767,251.010864 
	C307.918671,250.397827 305.136414,247.616211 304.281616,243.385071 
	C303.232208,238.190506 305.529907,234.415222 310.698730,232.045685 
z"/>
</svg>